<svg width="160" height="36" xmlns="http://www.w3.org/2000/svg" class="design-iconfont" fill="none">

 <g>
  <title>Layer 1</title>
  <path id="svg_1" fill="#22AC38" d="m14.4243,22.0958c-0.1837,0.0919 -0.3675,0.1378 -0.5972,0.1378c-0.5053,0 -0.9187,-0.2756 -1.1484,-0.689l-0.0919,-0.1838l-3.62903,-7.9012c-0.04594,-0.0919 -0.04594,-0.1837 -0.04594,-0.2756c0,-0.3675 0.27562,-0.6431 0.64312,-0.6431c0.13781,0 0.27562,0.0459 0.41344,0.1378l4.27221,3.0318c0.3215,0.1838 0.689,0.3216 1.1024,0.3216c0.2297,0 0.4594,-0.0459 0.6891,-0.1378l20.0287,-8.91184c-3.5832,-4.22622 -9.5091,-6.98246 -16.2159,-6.98246c-10.93307,0 -19.8449,7.3959 -19.8449,16.5374c0,4.9612 2.66436,9.4631 6.84465,12.495c0.32156,0.2296 0.55125,0.6431 0.55125,1.0565c0,0.1378 -0.04594,0.2756 -0.09187,0.4134c-0.32157,1.2404 -0.87281,3.2616 -0.87281,3.3535c-0.04594,0.1378 -0.09188,0.3215 -0.09188,0.5053c0,0.3675 0.27563,0.6431 0.64312,0.6431c0.13782,0 0.27563,-0.0459 0.3675,-0.1378l4.31814,-2.5266c0.3215,-0.1837 0.689,-0.3215 1.0565,-0.3215c0.1838,0 0.4135,0.0459 0.5972,0.0918c2.0212,0.5972 4.2262,0.9188 6.4772,0.9188c10.933,0 19.8449,-7.3959 19.8449,-16.5374c0,-2.7563 -0.8269,-5.3747 -2.251,-7.67155l-22.8308,13.18405l-0.1378,0.0918z"/>
  <path id="svg_2" fill="#494949" d="m102.256,11.7148l-14.8839,0l0,1.3322l14.8839,0l0,-1.3322z"/>
  <path id="svg_3" fill="#494949" d="m102.256,15.8477l-14.8839,0l0,1.424l14.8839,0l0,-1.424z"/>
  <path id="svg_4" fill="#494949" d="m101.842,28.2061l0,-8.085l-14.1027,0l0,8.039l14.1027,0l0,0.046zm-12.6787,-6.7528l11.2547,0l0,5.3746l-11.2547,0l0,-5.3746z"/>
  <path id="svg_5" fill="#494949" d="m83.2833,29.0319l0,-18.5127c0.8269,-1.8375 1.6078,-3.76687 2.205,-5.74217l-1.3322,-0.78094c-1.3321,4.63967 -3.2156,8.82001 -5.6502,12.35711l0.7809,1.3781c0.8269,-1.2403 1.6997,-2.7103 2.5725,-4.2262l0,15.5727l1.424,0l0,-0.0459z"/>
  <path id="svg_6" fill="#494949" d="m137.305,29.0319l0,-18.5127c0.827,-1.8375 1.608,-3.76687 2.205,-5.74217l-1.332,-0.78094c-1.333,4.63967 -3.216,8.82001 -5.651,12.35711l0.781,1.3781c0.827,-1.2403 1.7,-2.7103 2.573,-4.2262l0,15.5727l1.424,0l0,-0.0459z"/>
  <path id="svg_7" fill="#494949" d="m103.817,7.44248l-8.7282,0l0.9187,-0.55124l0.046,0l0,-0.04594c-0.0919,-0.22969 -0.3675,-0.82687 -0.6891,-1.47c-0.2756,-0.59718 -0.5512,-1.14843 -0.6891,-1.46999l0,-0.04593l-1.3321,0.78093l0,0.04594c0.4593,0.8728 0.8728,1.69968 1.2403,2.48061c0.0459,0.09187 0.0918,0.18375 0.0918,0.22969l-8.728,0l0,1.42405l17.8697,0l0,-1.37812z"/>
  <path id="svg_8" fill="#494949" d="m65.414,6.33858l-1.3322,0l0,4.68562l-2.5266,0l0,-6.66092l-1.3321,0l0,6.66092l-2.6185,0l0,-4.68562l-1.3321,0l0,6.01782l9.1415,0l0,-6.01782z"/>
  <path id="svg_9" fill="#494949" d="m64.7705,14.9766l-8.085,0l0,1.3321l8.085,0l0,-1.3321z"/>
  <path id="svg_10" fill="#494949" d="m58.4317,21.4983l0,-1.1944l4.0884,0l0,2.94c-0.0459,1.0565 -0.0919,1.3781 -0.4594,1.8375l0.8269,1.424l0.046,-0.0459c0.7349,-0.5972 1.9293,-1.6078 3.629,-3.1237l0.0459,0l-0.6431,-1.1025l-0.0459,-0.046l-2.0672,1.7456l0,-5.0071l-6.8447,0l0,2.0212c0.1838,2.7563 -0.5053,4.7316 -2.0671,5.88l-0.046,0l0.735,1.2862l0.046,0.046l0.0459,-0.046c1.9294,-1.5159 2.8481,-3.7668 2.7103,-6.6149z"/>
  <path id="svg_11" fill="#494949" d="m49.7031,10.6579l0.8269,1.3782c2.0672,-2.06723 3.8587,-4.54784 5.145,-7.25814l-1.2403,-0.73499c-1.3322,2.66436 -2.94,4.91528 -4.7316,6.61493z"/>
  <path id="svg_12" fill="#494949" d="m49.3359,19.0636l0.735,1.2862l0.046,0.0459l0.0459,-0.0459c0.7809,-0.9187 1.5619,-1.8834 2.2969,-2.894l0,11.5761l1.3322,0l0,-13.7811c0.5971,-1.0566 1.1943,-2.251 1.7456,-3.5831l0,-0.046l-1.2863,-0.735l0,0.046c-1.2862,3.0778 -2.894,5.834 -4.9153,8.1309z"/>
  <path id="svg_13" fill="#494949" d="m75.1982,10.2914l0,-1.3322l-5.9259,0c0.5053,-1.56187 1.1025,-3.35343 1.2862,-4.86936l-1.3781,0c-0.8728,4.04248 -2.205,7.57966 -3.9047,10.33586l0.8269,1.47l0.5972,-1.2403c0.2297,-0.4134 0.4134,-0.735 0.5512,-1.0106c0.4135,3.5831 1.1485,6.4772 2.1591,8.5903c-0.9647,1.6996 -2.4806,3.4453 -4.5019,5.2368l-0.0459,0l0.7809,1.3322l0.046,0.0459l0.0459,-0.0459c2.1131,-1.9753 3.5831,-3.7209 4.3641,-5.145c0.8728,1.5619 2.3887,3.4453 4.0884,5.2369l0.0459,0.0459l0.7809,-1.3781l0,-0.0459l-0.0459,0c-1.8375,-1.7916 -3.3075,-3.6291 -4.1344,-5.191c1.516,-2.7562 2.4347,-6.7987 2.8022,-12.0355l1.5619,0zm-4.9153,10.3359c-0.8728,-2.251 -1.5159,-5.3288 -1.9294,-9.1416c0.1379,-0.4134 0.3216,-0.8268 0.5053,-1.1943l3.5832,0c-0.3216,4.3181 -1.0107,7.8093 -2.1591,10.3359z"/>
  <path id="svg_14" fill="#494949" d="m130.828,8.8656l0,-1.42406l-11.347,0l0,-3.62904l-1.47,0l0,3.62904l-11.254,0l0,1.42406l11.254,0l0,4.7315l-0.229,0l-7.075,0l0,1.2863c0,0 1.103,2.5265 3.4,5.2828c0.919,1.1025 1.975,2.2509 3.353,3.3993c-2.572,1.5619 -5.742,3.0778 -10.198,3.9506l0.827,1.47c0,0 5.283,-1.1025 10.52,-4.5018c0.689,0.4593 3.95,3.0318 10.014,4.5018l0.046,0l0.597,-1.1025c0,0 -1.562,-0.4134 -3.951,-1.3322c-1.653,-0.6431 -3.72,-1.6078 -5.696,-2.9399c2.94,-2.1591 5.559,-5.2828 7.121,-9.2794l-1.195,-0.689l-6.109,0l0,-4.7775l11.392,0zm-5.742,5.9718c0,0 -1.47,4.1803 -6.477,7.7634c-2.389,-1.8375 -4.87,-4.5018 -6.432,-7.7634l12.909,0z"/>
  <path id="svg_15" fill="#494949" d="m150.11,27.1963c-0.275,0 -0.551,0 -0.827,0l0,1.424c0.552,0 0.965,0 1.241,0c1.424,0 2.159,-0.3215 2.802,-0.9187c0.597,-0.5972 0.873,-1.47 0.827,-2.6644l0,-13.3677l3.859,0l0,-1.4241l-3.859,0l0,-6.15556l-1.424,0l0,6.15556l-11.852,0l0,1.4241l11.852,0l0,13.3677c-0.046,1.47 -0.965,2.1591 -2.619,2.1591z"/>
  <path id="svg_16" fill="#494949" d="m145.895,22.417l1.425,-0.8269c-0.781,-1.5621 -1.792,-3.6296 -3.033,-6.1565l-1.286,0.781c0.827,1.7 1.792,3.7674 2.894,6.2024z"/>
 </g>
</svg>