<svg width="1024" height="1024" xmlns="http://www.w3.org/2000/svg" p-id="3646" version="1.1" class="icon" t="1691397673899">

 <g>
  <title>Layer 1</title>
  <path stroke="null" id="svg_1" p-id="3647" fill="currentColor" d="m511.4994,64l-411.36591,177.067l0,360.533l411.36591,177.067l411.36708,-177.067l0,-360.533l-411.36708,-177.067zm333.60914,497.067l-336.11708,145.066l-107.85795,-46.933l185.61589,-89.6c10.03412,4.267 20.06706,6.4 30.1,6.4c37.625,0 67.725,-25.6 67.725,-57.6s-30.1,-57.6 -67.725,-57.6c-35.11588,0 -62.70794,21.333 -65.21589,49.067l-233.27501,110.933l-145.48413,-61.867l0,-279.466l336.11708,-145.067l120.40001,51.2l-193.14207,91.733c-10.03294,-4.266 -20.06588,-6.4 -30.1,-6.4c-37.625,0 -67.725,25.6 -67.725,57.6s30.1,57.6 67.725,57.6c35.11706,0 62.70912,-21.333 65.21706,-49.066l238.29207,-113.067l132.94089,57.6l0,279.467l2.50912,0z"/>
  <path stroke="null" id="svg_2" p-id="3648" fill="currentColor" d="m514.0116,883.2l-414.37809,-172.8l0,70.4l414.37809,174.933l409.35493,-174.933l0,-70.4l-409.35493,172.8z"/>
  <g stroke="null">
   <path stroke="null" p-id="3647" fill="currentColor" d="m511.49942,66.13351l-411.36592,177.067l0,360.533l411.36592,177.067l411.3671,-177.067l0,-360.533l-411.3671,-177.067zm333.60915,497.067l-336.11709,145.066l-107.85795,-46.933l185.6159,-89.6c10.03412,4.267 20.06706,6.4 30.1,6.4c37.625,0 67.72501,-25.6 67.72501,-57.6s-30.1,-57.6 -67.72501,-57.6c-35.11589,0 -62.70795,21.333 -65.21589,49.067l-233.27502,110.933l-145.48413,-61.867l0,-279.466l336.11709,-145.067l120.40001,51.2l-193.14208,91.733c-10.03294,-4.266 -20.06588,-6.4 -30.1,-6.4c-37.625,0 -67.72501,25.6 -67.72501,57.6s30.1,57.6 67.72501,57.6c35.11706,0 62.70912,-21.333 65.21706,-49.066l238.29208,-113.067l132.94089,57.6l0,279.467l2.50912,0z"/>
   <path stroke="null" p-id="3648" fill="currentColor" d="m514.00854,885.33351l-413.87504,-172.8l0,70.4l413.87504,174.933l408.85798,-174.933l0,-70.4l-408.85798,172.8z"/>
  </g>
 </g>
</svg>